name analog
datacolumns 19
datarows 57
range 0.40750000000000003 0.4355
endheader
time	ground_force_vx	ground_force_vy	ground_force_vz	ground_force_px	ground_force_py	ground_force_pz	l_ground_force_vx	l_ground_force_vy	l_ground_force_vz	l_ground_force_px	l_ground_force_py	l_ground_force_pz	ground_torque_x	ground_torque_y	ground_torque_z	l_ground_torque_x	l_ground_torque_y	l_ground_torque_z
0.40750000000000003	-0.0	-0.0	-0.0	-0.0	-0.0	-0.0	-2.156269788742065	7.4260687828063965	-650.3623657226562	-0.0	-0.0	-0.0	-0.0	-0.0	-0.0	184163.625	-26686.5	-2144.55712890625
0.40800000000000003	-0.0	-0.0	-0.0	-0.0	-0.0	-0.0	-2.258392333984375	6.011923789978027	-648.37451171875	-0.0	-0.0	-0.0	-0.0	-0.0	-0.0	183890.234375	-26638.591796875	-1966.9619140625
0.40850000000000003	-0.0	-0.0	-0.0	-0.0	-0.0	-0.0	-2.5456855297088623	5.917552947998047	-647.972412109375	-0.0	-0.0	-0.0	-0.0	-0.0	-0.0	183153.234375	-26546.859375	-2051.628662109375
0.40900000000000003	-0.0	-0.0	-0.0	-0.0	-0.0	-0.0	-2.599397897720337	6.0192084312438965	-647.1690063476562	-0.0	-0.0	-0.0	-0.0	-0.0	-0.0	182948.875	-26523.45703125	-2001.2454833984373
0.40950000000000003	-0.0	-0.0	-0.0	-0.0	-0.0	-0.0	-2.550488233566284	5.86900806427002	-645.6337280273438	-0.0	-0.0	-0.0	-0.0	-0.0	-0.0	182503.765625	-26742.04296875	-2094.618896484375
0.41000000000000003	-0.0	-0.0	-0.0	-0.0	-0.0	-0.0	-2.8652474880218506	5.475944519042969	-646.8577270507812	-0.0	-0.0	-0.0	-0.0	-0.0	-0.0	182288.734375	-26861.015625	-1985.0599365234373
0.41050000000000003	-0.0	-0.0	-0.0	-0.0	-0.0	-0.0	-3.104877471923828	5.119123458862305	-644.741455078125	-0.0	-0.0	-0.0	-0.0	-0.0	-0.0	182155.3125	-26758.50390625	-2089.425537109375
0.41100000000000003	-0.0	-0.0	-0.0	-0.0	-0.0	-0.0	-2.864950656890869	3.810877799987793	-645.581298828125	-0.0	-0.0	-0.0	-0.0	-0.0	-0.0	182265.234375	-26895.7890625	-2039.125732421875
0.41150000000000003	-0.0	-0.0	-0.0	-0.0	-0.0	-0.0	-3.1023201942443848	3.0288994312286377	-645.4273681640625	-0.0	-0.0	-0.0	-0.0	-0.0	-0.0	182038.6875	-26717.212890625	-2111.0888671875
0.41200000000000003	-0.0	-0.0	-0.0	-0.0	-0.0	-0.0	-3.472694396972656	3.367044687271118	-646.6715087890625	-0.0	-0.0	-0.0	-0.0	-0.0	-0.0	182226.671875	-26886.326171875	-2167.08935546875
0.41250000000000003	-0.0	-0.0	-0.0	-0.0	-0.0	-0.0	-3.662935256958008	3.3947439193725586	-648.1268920898438	-0.0	-0.0	-0.0	-0.0	-0.0	-0.0	183140.765625	-26955.7734375	-2248.108154296875
0.41300000000000003	-0.0	-0.0	-0.0	-0.0	-0.0	-0.0	-3.307950019836426	3.797832489013672	-650.3685302734375	-0.0	-0.0	-0.0	-0.0	-0.0	-0.0	183912.28125	-27192.564453125	-2340.55859375
0.41350000000000003	-0.0	-0.0	-0.0	-0.0	-0.0	-0.0	-3.0411267280578613	3.999864339828491	-653.5637817382812	-0.0	-0.0	-0.0	-0.0	-0.0	-0.0	184506.609375	-27293.294921875	-2293.805419921875
0.41400000000000003	-0.0	-0.0	-0.0	-0.0	-0.0	-0.0	-2.306480407714844	4.580098628997803	-654.360107421875	-0.0	-0.0	-0.0	-0.0	-0.0	-0.0	185013.015625	-27692.84765625	-2165.95166015625
0.41450000000000004	-0.0	-0.0	-0.0	-0.0	-0.0	-0.0	-1.7742156982421875	4.466731548309326	-657.0553588867188	-0.0	-0.0	-0.0	-0.0	-0.0	-0.0	185521.09375	-27720.99609375	-2220.71240234375
0.41500000000000004	-0.0	-0.0	-0.0	-0.0	-0.0	-0.0	-1.4444448947906494	4.189516067504883	-656.2076416015625	-0.0	-0.0	-0.0	-0.0	-0.0	-0.0	185149.078125	-27536.78515625	-2017.117919921875
0.41550000000000004	-0.0	-0.0	-0.0	-0.0	-0.0	-0.0	-1.3181896209716797	3.495615243911743	-653.7590942382812	-0.0	-0.0	-0.0	-0.0	-0.0	-0.0	184742.171875	-27588.638671875	-2059.85009765625
0.41600000000000004	-0.0	-0.0	-0.0	-0.0	-0.0	-0.0	-0.8604030013084412	2.9763495922088623	-653.8633422851562	-0.0	-0.0	-0.0	-0.0	-0.0	-0.0	184290.25	-27479.529296875	-1851.467041015625
0.4165	-0.0	-0.0	-0.0	-0.0	-0.0	-0.0	-0.7860731482505798	2.622678279876709	-651.1192016601562	-0.0	-0.0	-0.0	-0.0	-0.0	-0.0	183544.984375	-27375.779296875	-1759.1304931640625
0.417	-0.0	-0.0	-0.0	-0.0	-0.0	-0.0	-0.1529018878936767	2.384685516357422	-648.229736328125	-0.0	-0.0	-0.0	-0.0	-0.0	-0.0	182470.46875	-27267.044921875	-1559.3985595703125
0.4175	-0.0	-0.0	-0.0	-0.0	-0.0	-0.0	0.7862135767936707	1.4737972021102903	-645.7251586914062	-0.0	-0.0	-0.0	-0.0	-0.0	-0.0	181603.875	-27418.578125	-1346.17041015625
0.418	-0.0	-0.0	-0.0	-0.0	-0.0	-0.0	1.3306617736816406	1.0357425212860107	-643.200439453125	-0.0	-0.0	-0.0	-0.0	-0.0	-0.0	180891.078125	-27302.33984375	-1190.715576171875
0.4185	-0.0	-0.0	-0.0	-0.0	-0.0	-0.0	1.290143609046936	0.6705875396728516	-640.2966918945312	-0.0	-0.0	-0.0	-0.0	-0.0	-0.0	180191.96875	-27165.1484375	-902.3822631835938
0.419	-0.0	-0.0	-0.0	-0.0	-0.0	-0.0	1.6805903911590576	0.4703381657600403	-639.485107421875	-0.0	-0.0	-0.0	-0.0	-0.0	-0.0	179397.640625	-27612.359375	-884.6036376953125
0.4195	-0.0	-0.0	-0.0	-0.0	-0.0	-0.0	1.975452184677124	0.0118552045896649	-641.2509155273438	-0.0	-0.0	-0.0	-0.0	-0.0	-0.0	179811.15625	-27499.470703125	-799.5211181640625
0.42	-0.0	-0.0	-0.0	-0.0	-0.0	-0.0	2.738197565078736	0.8066800832748413	-641.6941528320312	-0.0	-0.0	-0.0	-0.0	-0.0	-0.0	179978.40625	-27740.134765625	-604.9600219726562
0.4205	-0.0	-0.0	-0.0	-0.0	-0.0	-0.0	3.672420978546143	1.6717462539672852	-644.138427734375	-0.0	-0.0	-0.0	-0.0	-0.0	-0.0	180394.453125	-28110.38671875	-382.5960693359375
0.421	-0.0	-0.0	-0.0	-0.0	-0.0	-0.0	4.339987754821777	2.438073873519897	-643.7626342773438	-0.0	-0.0	-0.0	-0.0	-0.0	-0.0	180633.28125	-28465.267578125	-192.20957946777344
0.4215	-0.0	-0.0	-0.0	-0.0	-0.0	-0.0	5.476828098297119	2.58446741104126	-646.1881713867188	-0.0	-0.0	-0.0	-0.0	-0.0	-0.0	180626.796875	-29026.341796875	127.09342193603516
0.422	-0.0	-0.0	-0.0	-0.0	-0.0	-0.0	6.155706882476807	2.5728323459625244	-645.581298828125	-0.0	-0.0	-0.0	-0.0	-0.0	-0.0	180526.5	-29107.744140625	541.6028442382812
0.4225	-0.0	-0.0	-0.0	-0.0	-0.0	-0.0	6.452920913696289	2.042831420898437	-647.4954833984375	-0.0	-0.0	-0.0	-0.0	-0.0	-0.0	180482.71875	-29619.462890625	408.8852844238281
0.423	-0.0	-0.0	-0.0	-0.0	-0.0	-0.0	5.700301647186279	1.2794021368026731	-647.9805297851562	-0.0	-0.0	-0.0	-0.0	-0.0	-0.0	180163.296875	-29523.787109375	371.78948974609375
0.4235	-0.0	-0.0	-0.0	-0.0	-0.0	-0.0	5.500068664550781	0.7836025953292847	-647.8101806640625	-0.0	-0.0	-0.0	-0.0	-0.0	-0.0	180322.59375	-30006.13671875	204.85150146484372
0.424	-0.0	-0.0	-0.0	-0.0	-0.0	-0.0	5.211393356323242	1.0261943340301514	-649.3390502929688	-0.0	-0.0	-0.0	-0.0	-0.0	-0.0	180557.5	-30261.837890625	193.2583923339844
0.4245	-0.0	-0.0	-0.0	-0.0	-0.0	-0.0	5.212390422821045	0.8943619132041931	-652.347412109375	-0.0	-0.0	-0.0	-0.0	-0.0	-0.0	180930.40625	-30617.390625	219.06890869140625
0.425	-0.0	-0.0	-0.0	-0.0	-0.0	-0.0	6.143304347991943	1.357740044593811	-655.5753784179688	-0.0	-0.0	-0.0	-0.0	-0.0	-0.0	181492.78125	-30885.111328125	479.3386535644531
0.4255	-0.0	-0.0	-0.0	-0.0	-0.0	-0.0	7.019486427307129	1.5347638130187988	-655.6632690429688	-0.0	-0.0	-0.0	-0.0	-0.0	-0.0	181928.640625	-31389.1171875	550.4237060546875
0.426	-0.0	-0.0	-0.0	-0.0	-0.0	-0.0	7.518452167510986	1.2583720684051514	-656.9702758789062	-0.0	-0.0	-0.0	-0.0	-0.0	-0.0	181944.859375	-31346.744140625	643.30126953125
0.4265	-0.0	-0.0	-0.0	-0.0	-0.0	-0.0	7.440787315368652	1.1590527296066284	-660.9923706054688	-0.0	-0.0	-0.0	-0.0	-0.0	-0.0	182381.796875	-31676.71875	661.84619140625
0.427	-0.0	-0.0	-0.0	-0.0	-0.0	-0.0	7.639968872070312	0.5083423852920532	-660.1099243164062	-0.0	-0.0	-0.0	-0.0	-0.0	-0.0	182474.859375	-31841.544921875	616.9699096679688
0.4275	-0.0	-0.0	-0.0	-0.0	-0.0	-0.0	7.518863201141357	0.1551841795444488	-662.3829956054688	-0.0	-0.0	-0.0	-0.0	-0.0	-0.0	182669.84375	-31999.5078125	717.3238525390625
0.428	-0.0	-0.0	-0.0	-0.0	-0.0	-0.0	7.274284362792969	-0.6852558255195618	-663.640869140625	-0.0	-0.0	-0.0	-0.0	-0.0	-0.0	182857.234375	-31786.99609375	802.3486328125
0.4285	-0.0	-0.0	-0.0	-0.0	-0.0	-0.0	7.118119716644287	-1.4591411352157593	-665.5667114257812	-0.0	-0.0	-0.0	-0.0	-0.0	-0.0	183506.140625	-32181.33984375	675.0709838867188
0.429	-0.0	-0.0	-0.0	-0.0	-0.0	-0.0	7.274284362792969	-1.366897463798523	-668.5421752929688	-0.0	-0.0	-0.0	-0.0	-0.0	-0.0	183655.921875	-32383.896484375	835.4194946289062
0.4295	-0.0	-0.0	-0.0	-0.0	-0.0	-0.0	6.862194061279297	-1.854755401611328	-668.4000854492188	-0.0	-0.0	-0.0	-0.0	-0.0	-0.0	184179.40625	-32273.666015625	728.4751586914062
0.43	-0.0	-0.0	-0.0	-0.0	-0.0	-0.0	7.008152008056641	-1.4807281494140625	-670.06298828125	-0.0	-0.0	-0.0	-0.0	-0.0	-0.0	184264.65625	-32316.421875	571.7078247070312
0.4305	-0.0	-0.0	-0.0	-0.0	-0.0	-0.0	6.1624531745910645	-1.049553394317627	-671.1102294921875	-0.0	-0.0	-0.0	-0.0	-0.0	-0.0	184311.671875	-32510.23828125	475.2790832519531
0.431	-0.0	-0.0	-0.0	-0.0	-0.0	-0.0	6.820455551147461	-1.0189406871795654	-672.69384765625	-0.0	-0.0	-0.0	-0.0	-0.0	-0.0	184664.25	-32466.865234375	524.80126953125
0.4315	-0.0	-0.0	-0.0	-0.0	-0.0	-0.0	7.216206073760986	-0.9340473413467408	-672.6946411132812	-0.0	-0.0	-0.0	-0.0	-0.0	-0.0	184768.75	-32310.814453125	605.004638671875
0.432	-0.0	-0.0	-0.0	-0.0	-0.0	-0.0	7.568287372589111	-0.7948951721191406	-674.6306762695312	-0.0	-0.0	-0.0	-0.0	-0.0	-0.0	184777.65625	-32122.89453125	598.46142578125
0.4325	-0.0	-0.0	-0.0	-0.0	-0.0	-0.0	7.520291328430176	-0.7448022365570068	-673.5530395507812	-0.0	-0.0	-0.0	-0.0	-0.0	-0.0	184972.171875	-32157.439453125	601.8050537109375
0.433	-0.0	-0.0	-0.0	-0.0	-0.0	-0.0	7.224290370941162	-0.5100202560424805	-674.7132568359375	-0.0	-0.0	-0.0	-0.0	-0.0	-0.0	184901.390625	-32057.212890625	443.7094421386719
0.4335	-0.0	-0.0	-0.0	-0.0	-0.0	-0.0	6.919441223144531	0.4416084289550781	-672.697998046875	-0.0	-0.0	-0.0	-0.0	-0.0	-0.0	184451.203125	-32022.96484375	538.9859619140625
0.434	-0.0	-0.0	-0.0	-0.0	-0.0	-0.0	6.840588092803955	1.030417561531067	-671.0306396484375	-0.0	-0.0	-0.0	-0.0	-0.0	-0.0	183984.640625	-31446.02734375	311.6559143066406
0.4345	-0.0	-0.0	-0.0	-0.0	-0.0	-0.0	6.288046360015869	0.6773430109024048	-668.5098266601562	-0.0	-0.0	-0.0	-0.0	-0.0	-0.0	183444.84375	-31296.2890625	268.3480224609375
0.435	-0.0	-0.0	-0.0	-0.0	-0.0	-0.0	6.437050819396973	0.6679072380065918	-666.3775634765625	-0.0	-0.0	-0.0	-0.0	-0.0	-0.0	182673.25	-31211.369140625	209.1493377685547
0.4355	-0.0	-0.0	-0.0	-0.0	-0.0	-0.0	6.593532085418701	0.2745674550533294	-664.359619140625	-0.0	-0.0	-0.0	-0.0	-0.0	-0.0	182304.4375	-31008.65625	268.5103454589844
